<?xml version="1.0" encoding="UTF-8" standalone="no"?>
<!-- Created with Inkscape (http://www.inkscape.org/) -->

<svg
   xmlns:dc="http://purl.org/dc/elements/1.1/"
   xmlns:cc="http://creativecommons.org/ns#"
   xmlns:rdf="http://www.w3.org/1999/02/22-rdf-syntax-ns#"
   xmlns:svg="http://www.w3.org/2000/svg"
   xmlns="http://www.w3.org/2000/svg"
   xmlns:sodipodi="http://sodipodi.sourceforge.net/DTD/sodipodi-0.dtd"
   xmlns:inkscape="http://www.inkscape.org/namespaces/inkscape"
   width="500"
   height="500"
   viewBox="0 0 132.29166 132.29167"
   version="1.1"
   id="svg8"
   inkscape:version="0.92.4 (5da689c313, 2019-01-14)"
   sodipodi:docname="dks.svg">
  <defs
     id="defs2" />
  <sodipodi:namedview
     id="base"
     pagecolor="#ffffff"
     bordercolor="#666666"
     borderopacity="1.0"
     inkscape:pageopacity="0.0"
     inkscape:pageshadow="2"
     inkscape:zoom="0.98994949"
     inkscape:cx="-37.037195"
     inkscape:cy="218.14305"
     inkscape:document-units="px"
     inkscape:current-layer="layer1"
     showgrid="true"
     inkscape:window-width="1920"
     inkscape:window-height="1017"
     inkscape:window-x="-8"
     inkscape:window-y="-8"
     inkscape:window-maximized="1"
     units="px">
    <inkscape:grid
       type="xygrid"
       id="grid4053" />
  </sodipodi:namedview>
  <metadata
     id="metadata5">
    <rdf:RDF>
      <cc:Work
         rdf:about="">
        <dc:format>image/svg+xml</dc:format>
        <dc:type
           rdf:resource="http://purl.org/dc/dcmitype/StillImage" />
        <dc:title></dc:title>
      </cc:Work>
    </rdf:RDF>
  </metadata>
  <g
     inkscape:label="Capa 1"
     inkscape:groupmode="layer"
     id="layer1"
     transform="translate(0,-164.70832)">
    <path
       style="opacity:0.99791715;fill:#ffffff;fill-opacity:1;fill-rule:nonzero;stroke:none;stroke-width:10.46584988;stroke-linecap:round;stroke-linejoin:round;stroke-miterlimit:4;stroke-dasharray:none;stroke-dashoffset:0;stroke-opacity:1;paint-order:normal"
       d="m 67.218276,188.22427 c -0.385764,0.0149 -0.77746,0.17785 -1.085888,0.48626 -0.394384,0.39436 -0.458303,0.56689 -0.417504,1.12739 0.04186,0.58038 0.128343,0.71576 0.699351,1.09828 l 0.651039,0.43671 -0.07372,1.52074 c -0.08166,1.68224 -0.460009,4.74452 -0.714222,5.78314 -0.09013,0.36789 -0.305374,0.76804 -0.47883,0.88953 -0.276484,0.19366 -0.386892,0.18488 -0.89386,-0.0737 -0.859382,-0.43842 -1.906488,-1.67713 -3.880826,-4.58885 -0.974269,-1.43678 -1.906051,-2.69615 -2.070185,-2.79866 -0.361675,-0.22587 -0.387853,-0.85145 -0.05513,-1.32623 0.152152,-0.21718 0.225736,-0.59334 0.195744,-1.0035 -0.04069,-0.55517 -0.127813,-0.70247 -0.567414,-0.95829 -0.444624,-0.25877 -0.604429,-0.27707 -1.107566,-0.12636 -0.731444,0.21914 -1.094785,0.61024 -1.206062,1.29588 -0.117892,0.72696 0.280183,1.17642 1.350391,1.52445 l 0.857932,0.27876 0.09045,0.76625 c 0.05018,0.42116 0.350419,1.63873 0.667762,2.70636 0.667731,2.24629 1.042371,4.72506 0.776164,5.13644 -0.474324,0.73289 -2.682225,-0.0607 -5.729251,-2.05904 -0.846448,-0.55513 -1.707476,-1.05153 -1.913465,-1.10323 -0.342376,-0.086 -0.374764,-0.17283 -0.374764,-1.01651 0,-0.81101 -0.04928,-0.96244 -0.411314,-1.24694 -0.641467,-0.5046 -1.390263,-0.42783 -2.025587,0.20751 -0.659583,0.65954 -0.711647,1.33309 -0.147427,1.89736 0.398687,0.39869 0.617741,0.44523 1.820549,0.39025 0.480292,-0.0219 0.747667,0.0366 0.801564,0.1753 0.04424,0.11449 0.704154,0.98182 1.466226,1.92772 2.056531,2.55243 3.651011,4.96039 3.651011,5.51368 0,0.75859 -0.280344,0.8626 -2.071425,0.76873 -1.065549,-0.0558 -2.199198,-0.2448 -3.3958,-0.56493 -0.988029,-0.26432 -1.949922,-0.48167 -2.137086,-0.48317 -0.477691,-0.003 -0.830676,-0.41147 -0.830676,-0.95828 0,-0.68353 -0.613522,-1.23146 -1.378265,-1.23146 -0.749916,0 -1.347196,0.43546 -1.584543,1.15465 -0.249386,0.75554 0.03051,1.27282 0.857932,1.58888 0.6045,0.23087 0.701086,0.23133 1.140398,0.004 0.263966,-0.13643 0.603139,-0.24839 0.753867,-0.24839 0.418288,0 5.342414,3.37156 7.692893,5.26714 2.717466,2.19153 2.814421,2.25337 3.335093,2.14204 0.55592,-0.11891 0.543751,0.0772 -0.03902,0.63556 -0.62187,0.59582 -0.62768,1.17198 -0.01177,1.17198 0.136536,0 0.704178,-0.32209 1.261812,-0.71545 4.101103,-2.89361 9.120238,-6.39826 10.647027,-7.4352 2.276745,-1.54625 2.535444,-2.00267 1.136683,-2.00267 -0.67388,0 -0.693779,-0.0145 -0.693779,-0.49123 0,-0.27036 -0.392644,-1.40546 -0.8728,-2.52237 -1.317234,-3.06402 -1.869121,-4.5827 -2.493887,-6.86284 -0.814793,-2.97376 -0.814316,-2.9631 -0.242821,-3.74021 0.591211,-0.80389 0.623577,-1.4119 0.102207,-1.93329 -0.285567,-0.28558 -0.665434,-0.41873 -1.051198,-0.40388 z m 8.716838,17.0428 c -0.493236,-0.0184 -1.010364,0.10129 -1.517643,0.37291 -0.568965,0.30464 -4.706333,3.1548 -11.231784,7.73811 -0.64435,0.45258 -1.6082,1.11602 -2.142043,1.47428 -0.533828,0.35828 -1.040424,0.82711 -1.126151,1.0419 -0.192003,0.48132 -0.338228,1.35054 -0.946514,5.62395 -0.51724,3.63409 -0.540875,3.74888 -0.773068,3.74888 -0.287052,0 -0.471602,-0.58182 -0.631832,-1.99585 -0.202796,-1.78985 -0.602759,-3.08288 -1.678698,-5.42386 -1.030344,-2.24182 -1.872022,-3.4684 -3.463319,-5.04663 -1.532786,-1.52021 -3.324061,-2.68786 -5.95225,-3.87959 -2.141727,-0.97111 -3.339505,-1.31587 -6.795317,-1.9562 -1.79628,-0.33282 -2.314563,-0.34959 -12.418641,-0.40202 l -10.544201,-0.0552 -1.8317,0.46397 c -5.5856154,1.41425 -9.4143009,4.80095 -11.6152215,10.27411 -0.4356588,1.08335 -0.698827,3.43439 -0.600242,5.36564 0.03311,0.64436 0.061258,1.22178 0.063179,1.28349 0,0.0617 0.1734267,0.20207 0.3809586,0.31221 0.2075786,0.11027 0.6633362,0.56039 1.0127933,1.0004 0.8923702,1.12377 1.2722195,1.24904 3.1554549,1.04004 2.2609781,-0.25093 3.0819687,-0.72869 4.5207137,-2.62954 1.039801,-1.37372 1.502458,-2.31937 1.723916,-3.52526 0.159815,-0.87015 0.141226,-1.2011 -0.146809,-2.61097 -0.228482,-1.11819 -0.283752,-1.70105 -0.179019,-1.89674 0.217271,-0.40593 0.99148,-0.64191 2.422651,-0.73776 1.778031,-0.11915 1.820093,-0.0571 1.555426,2.29628 -0.205526,1.82709 -0.259122,2.19402 -0.932884,6.3264 -0.210117,1.28873 -0.662486,4.35445 -1.00474,6.81266 -0.342256,2.4582 -0.689676,4.77804 -0.772448,5.15503 -0.08286,0.37698 -0.194943,1.28291 -0.249017,2.01319 -0.05434,0.73028 -0.179031,1.67966 -0.277512,2.10921 -0.09843,0.42958 -0.160874,0.84331 -0.139375,0.91988 0.06666,0.23689 -0.453551,4.00388 -0.609535,4.41417 -0.08107,0.21314 -0.147428,0.61631 -0.147428,0.89571 0,0.59509 -0.701825,4.84154 -0.836251,5.05902 -0.05017,0.0816 -0.462686,0.1922 -0.91616,0.24592 -0.453491,0.0538 -1.239001,0.20597 -1.7449774,0.33822 -1.9528525,0.51038 -3.2557456,2.2656 -3.4472138,4.64398 -0.1153629,1.43369 -0.011687,1.68334 0.9204953,2.23 l 0.6869657,0.40264 12.5084612,-0.0112 12.508462,-0.0105 1.992756,-0.5544 c 3.420683,-0.95139 3.971155,-1.14606 5.921277,-2.09559 4.41663,-2.15054 8.394722,-5.39668 11.174176,-9.11824 1.243372,-1.66488 2.025885,-3.03695 3.11581,-5.46412 0.886478,-1.97422 1.409895,-2.78374 1.647106,-2.54655 0.06236,0.0625 -0.01497,0.7259 -0.169729,1.47491 -0.155685,0.74899 -0.548648,3.03494 -0.873417,5.08007 -0.645595,4.06512 -0.745192,4.32683 -1.655158,4.32683 -0.753816,0 -2.08896,0.30961 -2.727418,0.63245 -0.697845,0.35289 -1.624882,1.29723 -1.953732,1.99028 -0.320352,0.67499 -0.557329,2.29906 -0.434231,2.97643 0.11299,0.62153 0.965252,1.52573 1.744977,1.85152 0.465829,0.19465 1.943465,0.22698 9.545037,0.21124 5.402877,-0.012 9.224982,-0.0802 9.572908,-0.17345 0.7178,-0.1924 1.800786,-1.00367 2.270266,-1.70038 0.479934,-0.71214 0.684867,-1.55182 0.7167,-2.93803 l 0.02664,-1.16518 -0.640506,-0.56926 c -0.801935,-0.71296 -1.910076,-1.11786 -3.058199,-1.11687 -0.933826,6.4e-4 -1.378269,-0.24455 -1.378269,-0.76129 0,-1.45758 1.349156,-10.3902 1.660115,-10.99144 0.139118,-0.26906 0.727148,-0.97389 1.30703,-1.56658 0.81515,-0.8331 1.138865,-1.0658 1.425961,-1.02518 0.352827,0.05 0.376417,0.12649 0.472638,1.53622 0.348863,5.11183 1.897425,12.24175 3.681364,16.94865 1.544766,4.07597 4.769977,9.94553 7.367066,13.4079 2.592482,3.45635 5.981884,5.82243 10.407308,7.26485 3.711801,1.20981 8.600527,1.57401 11.871667,0.88458 l -6.4e-4,6.4e-4 c 4.62721,-0.9752 9.23308,-3.27159 12.24335,-6.10341 4.84287,-4.55584 6.68346,-11.05114 3.85047,-13.58814 -0.38895,-0.34831 -0.70679,-0.74773 -0.70679,-0.88767 0,-0.13985 0.50941,-0.83899 1.13234,-1.55356 3.12691,-3.58702 4.11382,-5.44889 4.82177,-9.09346 0.35109,-1.80755 0.42181,-4.84525 0.14681,-6.3202 -0.49942,-2.67845 -1.89396,-5.32954 -3.83623,-7.29274 -1.33908,-1.35356 -2.33007,-2.08848 -4.92025,-3.6473 -4.00823,-2.41219 -7.12798,-5.10578 -7.92271,-6.84177 -0.82272,-1.79698 -0.38597,-3.94717 1.0165,-5.00265 0.91271,-0.68687 1.7118,-0.86983 3.48935,-0.79846 1.34208,0.054 1.58555,0.11125 2.26221,0.52963 1.94776,1.20421 3.5324,4.15782 4.20603,7.8397 0.43361,2.36949 0.49922,2.53668 1.09209,2.78441 0.67005,0.27995 2.55844,0.28504 3.58844,0.0105 1.07752,-0.28783 2.06336,-0.81586 2.2808,-1.22217 0.41717,-0.77946 0.61869,-2.27724 0.76439,-5.67288 0.0848,-1.97604 0.2233,-5.17442 0.30725,-7.10751 0.19058,-4.38967 0.0921,-4.9375 -0.98925,-5.50812 -0.48087,-0.25376 -0.92249,-0.34124 -1.73817,-0.34441 -1.30016,-0.005 -2.22639,0.38357 -3.17527,1.33243 -0.33824,0.33828 -0.71284,0.61511 -0.83192,0.61511 -0.11916,0 -0.74183,-0.22086 -1.38384,-0.4906 -2.38394,-1.00161 -4.51272,-1.40454 -7.43706,-1.408 -4.49828,-0.005 -9.82465,2.99593 -12.5512,7.07221 -1.505454,2.25058 -2.240541,4.04702 -2.835836,6.93283 -0.443147,2.14821 -0.362645,5.73327 0.162925,7.26362 0.962518,2.80241 2.796071,4.7994 8.273931,9.01231 5.68237,4.37015 6.93121,5.41026 7.31627,6.09534 0.18622,0.33137 0.45862,1.21318 0.6052,1.95931 0.24739,1.25898 0.24839,1.43014 0.0149,2.37929 -0.2861,1.15925 -0.89907,2.14046 -1.84098,2.9467 -0.78364,0.67076 -1.51961,0.79334 -4.19055,0.69812 -1.69165,-0.0603 -1.93013,-0.10788 -2.84264,-0.56184 -2.8277,-1.40654 -4.54281,-4.20989 -5.30121,-8.66667 -0.0988,-0.58046 -0.33177,-1.28352 -0.51786,-1.56224 -0.913574,-1.36805 -3.09278,-1.39738 -5.122203,-0.0687 -1.592477,1.04243 -1.740011,2.00286 -1.703474,11.1147 0.02595,6.53899 0.03575,6.72495 0.361139,7.30388 0.458855,0.8164 0.938112,1.0867 2.093108,1.17943 1.292665,0.10369 2.173372,-0.1566 3.377839,-0.99792 1.182931,-0.82626 1.524151,-0.8473 3.267571,-0.2038 2.7365,1.01006 6.08729,1.59164 8.67162,1.50525 1.16332,-0.0389 1.42566,0.13709 1.1627,0.77926 -0.13749,0.33578 -0.12758,0.92738 0.0415,2.53167 0.12148,1.15165 0.18867,2.17813 0.14929,2.2808 -0.0898,0.23394 -3.3097,1.85095 -4.53311,2.27646 -2.66912,0.92834 -5.34646,1.17809 -7.29459,0.68016 -1.153678,-0.29489 -3.572331,-1.554 -4.799459,-2.49823 -1.155759,-0.88935 -3.053009,-2.938 -4.023924,-4.34479 -1.086914,-1.57494 -3.060814,-5.03962 -3.971264,-6.97062 -2.978953,-6.31822 -4.736353,-12.367 -5.495719,-18.91539 -0.332272,-2.86527 -0.492931,-8.67804 -0.259545,-9.38521 0.12103,-0.36677 0.521947,-0.8518 1.155263,-1.39623 1.112365,-0.95627 2.591216,-2.34816 7.253086,-6.83 1.823019,-1.75267 3.439811,-3.28301 3.592792,-3.40076 0.457141,-0.35188 2.073606,-0.79859 3.32394,-0.91802 2.25454,-0.21535 3.34487,-1.08185 3.82446,-3.03899 0.51541,-2.10316 0.10951,-3.69925 -1.09518,-4.30577 -0.587798,-0.29596 -0.982029,-0.3149 -7.493439,-0.35866 -8.142838,-0.0548 -10.237026,0.074 -11.46841,0.70554 -0.632435,0.3244 -1.002238,0.66255 -1.463751,1.33925 -0.579707,0.85007 -0.634703,0.89027 -0.896956,0.6529 -0.15368,-0.13912 -0.368225,-0.47652 -0.476973,-0.74954 -0.492271,-1.23559 -1.461424,-1.94492 -2.546538,-1.98532 z m 3.123241,4.76787 c 0.02627,-0.008 0.047,-0.007 0.06256,0.003 0.06978,0.0431 0.176232,0.37679 0.236628,0.74148 0.162713,0.98208 0.271298,1.11052 1.466846,1.73878 0.601909,0.31628 1.131543,0.63522 1.176948,0.70864 0.04547,0.0734 -1.649752,1.74084 -3.766848,3.70491 -2.117038,1.96409 -4.35924,4.04547 -4.982819,4.6254 -0.623579,0.57991 -1.206055,1.05429 -1.294022,1.05429 -0.0879,0 -0.207001,-0.14841 -0.264502,-0.32954 -0.125761,-0.39609 1.02894,-8.52712 1.253756,-8.82958 0.0867,-0.11675 0.825316,-0.32615 1.64153,-0.4652 1.747155,-0.29762 2.482818,-0.63372 3.078643,-1.40861 0.758365,-0.98625 1.207426,-1.48535 1.391275,-1.54305 z m -47.935784,5.40219 c 0.568034,0.007 1.361082,0.0814 2.361947,0.22362 6.95391,0.9884 10.175232,4.54673 11.211961,12.38394 0.238638,1.80414 0.25031,2.33543 0.08858,4.06171 -0.319941,3.41582 -0.886502,5.55036 -2.14328,8.07757 -1.583862,3.1848 -4.582074,6.21271 -7.73006,7.80625 -2.151213,1.08897 -5.308774,1.80073 -7.988987,1.80073 -1.371427,0 -1.546053,-0.032 -1.696661,-0.31344 -0.155629,-0.2908 0.380397,-4.37033 1.650819,-12.56545 0.132441,-0.85457 0.340404,-2.26013 0.462728,-3.12387 0.32349,-2.28467 2.378616,-16.44201 2.506897,-17.26952 0.05998,-0.3866 0.178589,-0.7908 0.263261,-0.89819 0.101756,-0.12902 0.444764,-0.19018 1.012793,-0.18335 z"
       id="rect4055"
       inkscape:connector-curvature="0"
       sodipodi:nodetypes="cccccccccccccccccccccccsccccccscccsscccsccssccsscccccscccccscccccccccccccccccccccccccccscccccccccccccccscccccccccccscccccccccccsccccccscccccccccccsccccccccccccccccccccccccccccccccccccccccccscccccccscccccccccccscccccc" />
  </g>
</svg>
