<?xml version="1.0" encoding="UTF-8" standalone="no"?>
<!-- Created with Inkscape (http://www.inkscape.org/) -->

<svg
   xmlns:dc="http://purl.org/dc/elements/1.1/"
   xmlns:cc="http://creativecommons.org/ns#"
   xmlns:rdf="http://www.w3.org/1999/02/22-rdf-syntax-ns#"
   xmlns:svg="http://www.w3.org/2000/svg"
   xmlns="http://www.w3.org/2000/svg"
   xmlns:sodipodi="http://sodipodi.sourceforge.net/DTD/sodipodi-0.dtd"
   xmlns:inkscape="http://www.inkscape.org/namespaces/inkscape"
   width="200"
   height="200"
   viewBox="0 0 52.916666 52.916668"
   version="1.1"
   id="svg8"
   inkscape:version="0.92.4 (5da689c313, 2019-01-14)"
   sodipodi:docname="logo.svg">
  <defs
     id="defs2" />
  <sodipodi:namedview
     id="base"
     pagecolor="#ffffff"
     bordercolor="#666666"
     borderopacity="1.0"
     inkscape:pageopacity="0.0"
     inkscape:pageshadow="2"
     inkscape:zoom="2.8"
     inkscape:cx="91.985562"
     inkscape:cy="117.31179"
     inkscape:document-units="px"
     inkscape:current-layer="layer1"
     showgrid="false"
     inkscape:pagecheckerboard="true"
     fit-margin-top="0"
     fit-margin-left="0"
     fit-margin-right="0"
     fit-margin-bottom="0"
     units="px"
     inkscape:window-width="1920"
     inkscape:window-height="1017"
     inkscape:window-x="-8"
     inkscape:window-y="-8"
     inkscape:window-maximized="1" />
  <metadata
     id="metadata5">
    <rdf:RDF>
      <cc:Work
         rdf:about="">
        <dc:format>image/svg+xml</dc:format>
        <dc:type
           rdf:resource="http://purl.org/dc/dcmitype/StillImage" />
        <dc:title></dc:title>
      </cc:Work>
    </rdf:RDF>
  </metadata>
  <g
     inkscape:label="Capa 1"
     inkscape:groupmode="layer"
     id="layer1"
     transform="translate(-55.017514,-108.5122)">
    <path
       style="opacity:0.99791715;fill:#ffffff;fill-opacity:1;fill-rule:nonzero;stroke:none;stroke-width:6.60460186;stroke-linecap:round;stroke-linejoin:round;stroke-miterlimit:4;stroke-dasharray:none;stroke-dashoffset:0;stroke-opacity:1;paint-order:normal"
       d="m 81.296774,109.223 c -0.342621,0 -0.551058,0.48986 -0.694217,1.63196 -0.270418,2.15718 -0.897098,4.40627 -1.22779,4.40627 -0.332394,0 -1.996577,-3.87936 -1.995318,-4.65107 6.53e-4,-0.31416 -0.205416,-0.57117 -0.457711,-0.57117 -0.370044,0 -0.424859,0.49551 -0.283043,2.56459 0.105103,1.53317 0.04644,2.64517 -0.145984,2.76412 -0.372276,0.23006 -2.237299,-2.23844 -2.423068,-3.20718 -0.143467,-0.74821 -1.13643,-0.90757 -1.016782,-0.16319 0.0433,0.26926 0.456322,2.17866 0.917973,4.24308 0.461652,2.06443 0.880282,4.12067 0.930724,4.56947 0.05045,0.44879 0.114798,0.92926 0.142795,1.06777 0.028,0.13852 2.878353,0.21196 6.334019,0.16322 l 6.28302,-0.0886 0.05802,-0.97917 c 0.08944,-1.50851 1.369322,-7.42055 1.777299,-8.21012 0.3621,-0.70079 0.178434,-1.4184 -0.363365,-1.4184 -0.156827,0 -0.388472,0.33048 -0.514448,0.73438 -0.360754,1.15661 -2.161335,3.50885 -2.517414,3.28877 -0.192443,-0.11893 -0.251075,-1.23096 -0.145984,-2.76412 0.141815,-2.06909 0.08697,-2.5646 -0.283043,-2.5646 -0.252296,0 -0.458217,0.25703 -0.457711,0.57119 0.0012,0.77171 -1.663561,4.65107 -1.995955,4.65107 -0.330692,0 -0.957384,-2.24909 -1.227791,-4.40629 -0.143159,-1.14211 -0.351584,-1.63194 -0.694218,-1.63194 z m -0.09244,13.77789 c -3.371818,0.004 -6.225546,0.10193 -6.342307,0.21866 -0.421521,0.42152 0.433979,0.81258 2.354858,1.07671 l 1.958345,0.26966 0.216107,1.63068 c 0.325547,2.45538 0.315276,12.89115 -0.01276,12.89115 -0.157396,0 -1.088626,-1.3586 -2.069266,-3.01911 -4.26792,-7.22678 -4.438266,-7.70719 -2.866755,-8.07817 0.446896,-0.10547 0.861907,-0.44631 0.921798,-0.75733 0.10004,-0.51967 -0.297047,-0.55849 -4.894584,-0.47556 -4.140697,0.0746 -5.002956,0.17326 -5.002956,0.56991 0,0.30781 0.525456,0.58213 1.468758,0.76688 0.807824,0.15824 1.51823,0.33418 1.578402,0.39142 0.20484,0.1948 -2.119267,20.60126 -2.397567,21.05156 -0.08414,0.13606 -0.668265,0.34395 -1.298549,0.46218 -0.686652,0.12881 -1.146193,0.40525 -1.146193,0.68977 0,0.39199 0.76817,0.47491 4.406274,0.47491 3.548678,0 4.406273,-0.089 4.406273,-0.45517 0,-0.5208 -0.693174,-0.8504 -1.786861,-0.8504 -0.414898,0 -0.816609,-0.1836 -0.892475,-0.40799 -0.201977,-0.59736 0.529525,-16.48188 0.770078,-16.72241 0.178071,-0.17809 1.462298,2.17254 7.601333,13.9143 l 1.304924,2.49638 -0.382488,2.6258 c -0.397898,2.72995 -1.387461,5.09562 -2.866119,6.85293 -0.384453,0.45689 -0.861134,0.79078 -0.633655,1.17232 0.227214,0.38109 1.331061,0 1.331061,0 0.299722,-0.20975 0.63679,-0.45794 0.991921,-0.73948 4.061649,-3.21991 5.707871,-6.13938 5.917744,-10.49741 l 0.133234,-2.77432 3.469812,-6.76304 c 1.90815,-3.71971 3.568774,-6.65723 3.690383,-6.52781 0.255109,0.27151 0.937155,11.08795 0.935823,14.84121 l -0.0012,2.52952 H 91.11023 c -0.526859,0 -1.343637,0.14657 -1.81491,0.32576 -1.834318,0.69741 -0.371618,0.97981 5.076267,0.97981 4.597046,0 5.529504,-0.0795 5.529504,-0.47046 0,-0.29237 -0.521996,-0.57375 -1.379506,-0.74331 -1.297951,-0.25669 -1.393305,-0.35183 -1.608358,-1.61155 -0.186163,-1.09053 -1.443629,-15.20195 -1.681677,-18.87138 -0.05464,-0.84168 0.08881,-1.0208 1.079256,-1.34764 0.628311,-0.20731 1.191097,-0.6194 1.2501,-0.91541 0.09634,-0.4833 -0.369975,-0.52896 -4.569466,-0.44751 -3.899208,0.0756 -4.677205,0.17255 -4.677205,0.58074 0,0.26926 0.339894,0.53725 0.754779,0.59605 0.414885,0.0589 0.831667,0.30872 0.92626,0.55525 0.192553,0.50175 -5.371168,11.57793 -5.815745,11.57793 -0.155867,0 -0.243891,-3.39923 -0.195707,-7.55352 0.09671,-8.33897 -0.02503,-7.90346 2.310871,-8.27769 0.904699,-0.14496 1.216483,-0.3416 1.142367,-0.72037 -0.08907,-0.45514 -0.876282,-0.51994 -6.232659,-0.51445 z"
       id="rect3885"
       inkscape:connector-curvature="0"
       sodipodi:nodetypes="ccscsccccsccccccscccscsccccccccsccccsccccssssccccccaccccccccscssccccccsccsccccc" />
  </g>
</svg>
